<svg width="93" height="19" viewBox="0 0 93 19" fill="none" xmlns="http://www.w3.org/2000/svg">
<path d="M4.50534 8.232V18H1.91334V8.232H0.521344V6H1.91334V5.232C1.91334 3.52 2.16134 2.344 2.65734 1.704C3.15334 1.064 4.03334 0.743999 5.29734 0.743999L7.88934 0.983999L7.86534 3.12C7.08134 3.088 6.42534 3.072 5.89734 3.072C5.38534 3.072 5.02534 3.232 4.81734 3.552C4.60934 3.856 4.50534 4.424 4.50534 5.256V6H7.67334V8.232H4.50534ZM18.5382 9.696V15.168C18.5542 15.52 18.6422 15.784 18.8022 15.96C18.9782 16.12 19.2422 16.224 19.5942 16.272L19.5222 18.264C18.1462 18.264 17.0822 17.968 16.3302 17.376C15.0502 17.968 13.7622 18.264 12.4662 18.264C10.0822 18.264 8.89022 16.992 8.89022 14.448C8.89022 13.232 9.21022 12.352 9.85022 11.808C10.5062 11.264 11.5062 10.936 12.8502 10.824L15.9462 10.56V9.696C15.9462 9.056 15.8022 8.608 15.5142 8.352C15.2422 8.096 14.8342 7.968 14.2902 7.968C13.2662 7.968 11.9862 8.032 10.4502 8.16L9.68222 8.208L9.58622 6.36C11.3302 5.944 12.9302 5.736 14.3862 5.736C15.8582 5.736 16.9142 6.056 17.5542 6.696C18.2102 7.32 18.5382 8.32 18.5382 9.696ZM13.1622 12.672C12.0582 12.768 11.5062 13.368 11.5062 14.472C11.5062 15.576 11.9942 16.128 12.9702 16.128C13.7702 16.128 14.6182 16 15.5142 15.744L15.9462 15.6V12.408L13.1622 12.672ZM26.3103 5.736C27.1583 5.736 28.1583 5.848 29.3103 6.072L29.9103 6.192L29.8143 8.256C28.5503 8.128 27.6143 8.064 27.0063 8.064C25.7903 8.064 24.9743 8.336 24.5583 8.88C24.1423 9.424 23.9343 10.448 23.9343 11.952C23.9343 13.456 24.1343 14.496 24.5343 15.072C24.9343 15.648 25.7663 15.936 27.0303 15.936L29.8383 15.744L29.9103 17.832C28.2943 18.12 27.0783 18.264 26.2623 18.264C24.4383 18.264 23.1503 17.776 22.3983 16.8C21.6623 15.808 21.2943 14.192 21.2943 11.952C21.2943 9.712 21.6863 8.12 22.4703 7.176C23.2543 6.216 24.5343 5.736 26.3103 5.736ZM40.8663 15.84L41.5383 15.768L41.5863 17.712C39.7623 18.08 38.1463 18.264 36.7383 18.264C34.9623 18.264 33.6823 17.776 32.8983 16.8C32.1303 15.824 31.7463 14.264 31.7463 12.12C31.7463 7.864 33.4823 5.736 36.9543 5.736C40.3143 5.736 41.9943 7.568 41.9943 11.232L41.8263 13.104H34.3863C34.4023 14.096 34.6183 14.824 35.0343 15.288C35.4503 15.752 36.2263 15.984 37.3623 15.984C38.4983 15.984 39.6663 15.936 40.8663 15.84ZM39.4263 11.088C39.4263 9.904 39.2343 9.08 38.8503 8.616C38.4823 8.136 37.8503 7.896 36.9543 7.896C36.0583 7.896 35.4023 8.144 34.9863 8.64C34.5863 9.136 34.3783 9.952 34.3623 11.088H39.4263ZM50.1018 5.736C51.7498 5.736 52.9338 6.2 53.6538 7.128C54.3898 8.04 54.7578 9.664 54.7578 12C54.7578 14.336 54.3258 15.968 53.4618 16.896C52.5978 17.808 51.0778 18.264 48.9018 18.264C48.1498 18.264 46.9578 18.192 45.3258 18.048L44.5098 17.976V1.008H47.1018V6.456C48.2058 5.976 49.2058 5.736 50.1018 5.736ZM48.9018 15.936C50.1818 15.936 51.0298 15.64 51.4458 15.048C51.8778 14.44 52.0938 13.416 52.0938 11.976C52.0938 10.536 51.9098 9.528 51.5418 8.952C51.1898 8.36 50.6058 8.064 49.7898 8.064C49.0218 8.064 48.2538 8.184 47.4858 8.424L47.1018 8.544V15.84C47.9818 15.904 48.5818 15.936 48.9018 15.936ZM58.025 7.296C58.857 6.256 60.233 5.736 62.153 5.736C64.073 5.736 65.441 6.256 66.257 7.296C67.089 8.336 67.505 9.896 67.505 11.976C67.505 14.056 67.105 15.624 66.305 16.68C65.505 17.736 64.121 18.264 62.153 18.264C60.185 18.264 58.801 17.736 58.001 16.68C57.201 15.624 56.801 14.056 56.801 11.976C56.801 9.896 57.209 8.336 58.025 7.296ZM59.993 15.096C60.361 15.736 61.081 16.056 62.153 16.056C63.225 16.056 63.945 15.736 64.313 15.096C64.681 14.456 64.865 13.408 64.865 11.952C64.865 10.496 64.665 9.464 64.265 8.856C63.881 8.248 63.177 7.944 62.153 7.944C61.129 7.944 60.417 8.248 60.017 8.856C59.633 9.464 59.441 10.496 59.441 11.952C59.441 13.408 59.625 14.456 59.993 15.096ZM70.7515 7.296C71.5835 6.256 72.9595 5.736 74.8795 5.736C76.7995 5.736 78.1675 6.256 78.9835 7.296C79.8155 8.336 80.2315 9.896 80.2315 11.976C80.2315 14.056 79.8315 15.624 79.0315 16.68C78.2315 17.736 76.8475 18.264 74.8795 18.264C72.9115 18.264 71.5275 17.736 70.7275 16.68C69.9275 15.624 69.5275 14.056 69.5275 11.976C69.5275 9.896 69.9355 8.336 70.7515 7.296ZM72.7195 15.096C73.0875 15.736 73.8075 16.056 74.8795 16.056C75.9515 16.056 76.6715 15.736 77.0395 15.096C77.4075 14.456 77.5915 13.408 77.5915 11.952C77.5915 10.496 77.3915 9.464 76.9915 8.856C76.6075 8.248 75.9035 7.944 74.8795 7.944C73.8555 7.944 73.1435 8.248 72.7435 8.856C72.3595 9.464 72.1675 10.496 72.1675 11.952C72.1675 13.408 72.3515 14.456 72.7195 15.096ZM85.4461 18H82.8301V1.008H85.4461V10.824L86.9341 10.68L89.7661 6H92.6941L89.2381 11.616L92.8861 18H89.9341L87.0061 12.936L85.4461 13.104V18Z" fill="#B1B3BD"/>
</svg>
