<svg width="106" height="30" viewBox="0 0 106 30" fill="none" xmlns="http://www.w3.org/2000/svg">
<mask id="mask0_316_409" style="mask-type:luminance" maskUnits="userSpaceOnUse" x="0" y="0" width="106" height="30">
<path d="M105.6 0H0V30H105.6V0Z" fill="white"/>
</mask>
<g mask="url(#mask0_316_409)">
<path d="M5.43468 0.14772C3.27468 1.05239 0.897353 3.6084 0.146686 6.81665C-0.803714 10.8816 3.15122 12.6006 3.47562 12.0369C3.85735 11.3746 2.76695 11.1506 2.54229 9.04158C2.25216 6.31758 3.51856 3.27358 5.11241 1.93812C5.40868 1.69012 5.39456 2.03545 5.39456 2.67412L5.33149 16.2115C5.33149 19.1075 5.21189 20.0221 4.99708 20.9256C4.77935 21.8413 4.42949 22.4602 4.69468 22.6984C4.99095 22.965 6.25602 22.3309 6.98802 21.3088C7.86616 20.0831 8.17335 18.6111 8.22868 17.0124C8.29535 15.0853 8.29268 12.0275 8.29535 10.2831L8.26868 1.18305C8.25535 0.492387 6.33962 -0.23228 5.43562 0.146386L5.43468 0.14772ZM82.1858 13.7001C82.1161 15.2057 81.7829 16.3824 81.3694 17.2125C80.5688 18.8195 78.9071 19.3184 78.2017 17.0085C77.8173 15.7493 77.7992 13.6464 78.0756 11.8892C78.3556 10.0992 79.1425 8.74719 80.4436 8.86919C81.7267 8.98973 82.3273 10.6431 82.1861 13.7003L82.1858 13.7001ZM60.5533 23.0413C60.5361 25.5429 60.1423 27.7363 59.2979 28.3746C58.1006 29.2779 56.4911 28.6004 56.8244 26.775C57.1194 25.1596 58.5138 23.51 60.5569 21.4944L60.5536 23.0427L60.5533 23.0413ZM60.2263 13.686C60.1529 15.0572 59.7977 16.4348 59.4098 17.2132C58.6092 18.8201 56.9356 19.3225 56.2421 17.0092C55.7677 15.4285 55.8813 13.3828 56.1161 12.0939C56.4206 10.4215 57.1588 8.86985 58.484 8.86985C59.7727 8.86985 60.4079 10.2836 60.2265 13.6861L60.2263 13.686ZM47.6952 13.6651C47.6165 15.1173 47.3333 16.3315 46.8788 17.2131C46.0561 18.8091 44.4288 19.3151 43.7108 17.0091C43.1936 15.3461 43.3696 13.0788 43.585 11.854C43.9044 10.0364 44.7042 8.74773 45.9529 8.86998C47.2356 8.99531 47.8592 10.6437 47.6954 13.6653L47.6952 13.6651ZM105.123 15.3613C104.809 15.3613 104.666 15.6845 104.548 16.2285C104.137 18.1201 103.706 18.5485 103.148 18.5485C102.526 18.5485 101.967 17.6119 101.824 15.7369C101.711 14.2626 101.729 11.5484 101.873 8.84852C101.903 8.29385 101.75 7.74492 100.262 7.20452C99.6217 6.97198 98.6908 6.62985 98.2275 7.74825C96.9184 10.9083 96.4063 13.4172 96.2856 14.4362C96.2794 14.4891 96.2146 14.4997 96.2033 14.3765C96.1265 13.5603 95.9548 12.0769 95.9336 8.96025C95.9294 8.35225 95.8006 7.83465 95.1294 7.41092C94.694 7.13598 93.3717 6.64958 92.8954 7.22825C92.4829 7.70158 92.0052 8.97492 91.5088 10.4843L90.8242 12.5409L90.8344 7.97519C90.8365 7.50146 90.5117 7.34373 90.4138 7.31519C89.9727 7.18719 89.104 6.97331 88.7338 6.97331C88.2788 6.97331 88.1673 7.22773 88.1673 7.59825L88.0954 14.9699L88.0967 15.3952C87.845 16.7803 87.0288 18.6605 86.1411 18.6605C85.2525 18.6605 84.8344 17.8745 84.8344 14.2819C84.8344 12.1861 84.8973 11.2748 84.9283 9.75919L84.979 8.06346C84.9723 7.59679 84.1656 7.36173 83.7902 7.27479C83.4127 7.18719 83.0852 7.15319 82.8292 7.16773C82.4669 7.18812 82.2106 7.42585 82.2106 7.75265L82.2125 8.26119C81.7458 7.52785 80.9956 7.01773 80.4963 6.86985C79.1515 6.47052 77.7483 6.82452 76.6896 8.30546C75.8483 9.48225 75.3413 10.8152 75.1429 12.7302C74.9971 14.1302 75.0446 15.55 75.304 16.7506C74.9906 18.1053 74.409 18.6605 73.7721 18.6605C72.8473 18.6605 72.1769 17.1512 72.2546 14.5405C72.3061 12.8235 72.6496 11.6184 73.0254 9.87519C73.1854 9.13198 73.0554 8.74292 72.7292 8.37012C72.4298 8.02812 71.7921 7.85346 70.8752 8.0684C70.2221 8.22173 69.2886 8.3864 68.4342 8.51292C68.4342 8.51292 68.4858 8.30731 68.5281 7.94465C68.7502 6.04331 66.6842 6.19746 66.0248 6.80465C65.6315 7.16731 65.3636 7.59492 65.2617 8.36385C65.1004 9.58412 66.0958 10.1596 66.0958 10.1596C65.7692 11.6529 64.9688 13.6068 64.1425 15.0183C63.6998 15.7745 63.3611 16.3351 62.9242 16.9308L62.9206 16.2664L62.9708 9.75973L63.0219 8.08185C63.0169 7.74052 62.8175 7.61173 62.4031 7.44852C62.0365 7.30425 61.6031 7.20425 61.154 7.16946C60.5865 7.12519 60.2446 7.42613 60.2536 7.78198C60.2554 7.84919 60.2554 8.26173 60.2554 8.26173C59.7888 7.5284 59.0383 7.01825 58.5392 6.8704C57.1944 6.47119 55.7911 6.82506 54.7325 8.30598C53.8913 9.48279 53.3404 11.1342 53.1858 12.7161C53.0392 14.1905 53.0671 15.4435 53.2654 16.4988C53.0515 17.5557 52.4367 18.6609 51.7417 18.6609C50.8529 18.6609 50.3473 17.8749 50.3473 14.2823C50.3473 12.1865 50.4102 11.2752 50.4411 9.75958L50.4917 8.06385C50.485 7.59719 49.6783 7.36212 49.3029 7.27506C48.9102 7.1844 48.5696 7.15079 48.3106 7.16998C47.9669 7.19558 47.7252 7.50331 47.7252 7.73265V8.26146C47.2586 7.52812 46.5083 7.01798 46.009 6.87013C44.6642 6.47092 43.2688 6.83052 42.2023 8.30573C41.5069 9.26773 40.944 10.3341 40.6556 12.6951C40.5719 13.3773 40.535 14.0161 40.5396 14.6133C40.2623 16.3091 39.0377 18.2635 38.0359 18.2635C37.4496 18.2635 36.8913 17.1264 36.8913 14.7032C36.8913 11.4752 37.0911 6.87958 37.125 6.43652L38.6356 6.41212C39.2669 6.40519 39.8388 6.42012 40.6796 6.37706C41.1013 6.35573 41.5075 4.84185 41.0725 4.6544C40.875 4.56958 39.4806 4.49531 38.9279 4.48373C38.4631 4.47306 37.1692 4.37746 37.1692 4.37746L37.3123 1.00479C37.3352 0.736253 36.9877 0.59812 36.7883 0.51412C36.3038 0.309187 35.8702 0.211053 35.3563 0.105187C34.6465 -0.0412136 34.3244 0.101986 34.2613 0.701187C34.1679 1.61052 34.1173 4.27398 34.1173 4.27398C33.5965 4.27398 31.8169 4.17212 31.2958 4.17212C30.8117 4.17212 30.2892 6.2544 30.9583 6.28012L33.9606 6.36279L33.9225 12.9211C33.4327 15.4735 31.7079 16.8523 31.7079 16.8523C32.0783 15.1637 31.3217 13.8957 29.9586 12.8223C29.4565 12.4266 28.4652 11.6779 27.3558 10.8573C27.3558 10.8573 27.9983 10.2242 28.5692 8.95065C28.9727 8.0484 28.9902 7.01598 27.9996 6.78825C26.3625 6.41185 25.0129 7.61398 24.6102 8.89758C24.2983 9.89185 24.4646 10.6296 25.0756 11.3962C25.1202 11.4523 25.1686 11.5096 25.2186 11.5669C24.849 12.2792 24.3413 13.2381 23.9115 13.9816C22.7181 16.0463 21.8165 17.6793 21.1354 17.6793C20.5908 17.6793 20.5981 16.0213 20.5981 14.4689C20.5981 13.1306 20.6968 11.1186 20.7759 9.03558C20.802 8.34665 20.4575 7.95425 19.8799 7.59865C19.5292 7.38265 18.7802 6.95812 18.3466 6.95812C17.6972 6.95812 15.8246 7.0464 14.055 12.1653C13.8319 12.8106 13.3936 13.9861 13.3936 13.9861L13.4313 7.83052C13.4313 7.68625 13.3546 7.54652 13.1784 7.45119C12.8803 7.28931 12.0851 6.95812 11.3757 6.95812C11.0384 6.95812 10.8699 7.11506 10.8699 7.42785L10.8082 17.0585C10.8082 17.7903 10.8272 18.6452 10.8996 19.0172C10.972 19.3892 11.0884 19.6951 11.233 19.8759C11.3775 20.0566 11.5444 20.1943 11.8199 20.251C12.0763 20.3039 13.4799 20.4841 13.553 19.9477C13.6404 19.3051 13.6436 18.6095 14.381 16.0162C15.5284 11.9789 17.0246 10.0089 17.7279 9.30931C17.8508 9.18706 17.9912 9.17973 17.9846 9.37998L17.7779 14.356C17.5872 19.3846 18.5021 20.3168 19.8095 20.3168C20.8095 20.3168 22.2194 19.3231 23.7294 16.8075L26.244 12.5948L27.7296 13.9628C28.9233 15.0957 29.3152 16.1724 29.0552 17.1935C28.8563 17.9743 28.1073 18.7801 26.7742 17.9968C26.3858 17.7688 26.2198 17.5924 25.8292 17.3351C25.6194 17.1969 25.2988 17.1556 25.1065 17.3004C24.6075 17.6766 24.3221 18.1553 24.159 18.748C24.0002 19.3246 24.5779 19.6293 25.1765 19.8946C25.6921 20.124 26.7998 20.332 27.5065 20.3557C30.2594 20.449 32.4646 19.0264 33.9998 15.3604C34.2744 18.5265 35.4442 20.3183 37.4761 20.3183C38.8346 20.3183 40.1965 18.5623 40.7921 16.8348C40.9629 17.5388 41.2161 18.1513 41.5429 18.6691C43.1088 21.1498 46.1461 20.6157 47.6719 18.5093C48.1436 17.8584 48.2154 17.6245 48.2154 17.6245C48.4381 19.6136 50.0398 20.3085 50.9569 20.3085C51.984 20.3085 53.0446 19.8229 53.7879 18.1495C53.875 18.3311 53.97 18.5045 54.074 18.6689C55.6396 21.1498 58.6771 20.6156 60.2027 18.5092C60.2673 18.4206 60.3302 18.331 60.3917 18.2402L60.4365 19.5469L59.0319 20.8352C56.6802 22.9925 54.8923 24.6294 54.7606 26.5356C54.5919 28.9663 56.5629 29.8694 58.0542 29.9875C59.6379 30.1134 60.9942 29.2384 61.8275 28.0142C62.5611 26.9367 63.0406 24.6171 63.0054 22.3265L62.9502 18.9926C63.7769 18.0326 64.7079 16.8197 65.5654 15.3997C66.4998 13.8523 67.5013 11.7741 68.014 10.1568C68.014 10.1568 68.884 10.1642 69.8125 10.1035C70.1096 10.0841 70.1948 10.1448 70.14 10.3624C70.0738 10.6255 68.9669 14.8944 69.9769 17.7384C70.6684 19.6851 72.2269 20.3117 73.1511 20.3117C74.2327 20.3117 75.2675 19.4948 75.8221 18.2817C75.8888 18.4169 75.9588 18.5479 76.035 18.6686C77.6008 21.1494 80.6275 20.6122 82.164 18.5089C82.5106 18.0343 82.7075 17.6241 82.7075 17.6241C83.0373 19.6828 84.6384 20.3188 85.5552 20.3188C86.5104 20.3188 87.4169 19.9272 88.1525 18.1868C88.1831 18.9531 88.2317 19.5796 88.3079 19.7771C88.3546 19.8979 88.6261 20.0495 88.8236 20.1228C89.6973 20.4468 90.5883 20.2935 90.9169 20.2268C91.1452 20.1805 91.3236 19.9975 91.3475 19.5241C91.4115 18.2817 91.3721 16.1943 91.7475 14.6428C92.3798 12.0392 92.9694 11.0295 93.2492 10.5295C93.4058 10.2495 93.5825 10.2031 93.589 10.4996C93.6023 11.0996 93.6321 12.8609 93.8769 15.228C94.0569 16.9686 94.2969 17.9976 94.4817 18.3232C95.0088 19.2544 95.6596 19.2985 96.1883 19.2985C96.5258 19.2985 97.2306 19.2052 97.1675 18.6128C97.1369 18.324 97.1906 16.5389 97.814 13.9739C98.2211 12.2988 98.8996 10.7853 99.1444 10.232C99.2346 10.028 99.2767 10.1888 99.275 10.22C99.2235 11.3736 99.1079 15.1466 99.5777 17.2103C100.215 20.0059 102.058 20.3186 102.7 20.3186C104.071 20.3186 105.192 19.276 105.57 16.532C105.661 15.8716 105.526 15.3617 105.122 15.3617" fill="#B1B3BD"/>
</g>
</svg>
