<svg width="102" height="22" viewBox="0 0 102 22" fill="none" xmlns="http://www.w3.org/2000/svg">
<path d="M0.151976 1.245H2.84298L5.09698 14.792H5.57998L8.56998 1.291H11.56L14.55 14.792H15.056L17.31 1.245H20.001L16.896 17H12.779L10.065 4.373L7.37398 17H3.23398L0.151976 1.245ZM24.581 17H22.074V0.716H24.581V6.098C25.7157 5.53067 26.766 5.247 27.732 5.247C29.2654 5.247 30.308 5.684 30.86 6.558C31.4274 7.41667 31.711 8.84267 31.711 10.836V17H29.204V10.905C29.204 9.663 29.0737 8.78133 28.813 8.26C28.5524 7.73867 28.0004 7.478 27.157 7.478C26.421 7.478 25.685 7.60067 24.949 7.846L24.581 7.984V17ZM43.1397 9.042V14.286C43.155 14.6233 43.2394 14.8763 43.3927 15.045C43.5614 15.1983 43.8144 15.298 44.1517 15.344L44.0827 17.253C42.764 17.253 41.7444 16.9693 41.0237 16.402C39.797 16.9693 38.5627 17.253 37.3207 17.253C35.036 17.253 33.8937 16.034 33.8937 13.596C33.8937 12.4307 34.2004 11.5873 34.8137 11.066C35.4424 10.5447 36.4007 10.2303 37.6887 10.123L40.6557 9.87V9.042C40.6557 8.42867 40.5177 7.99933 40.2417 7.754C39.981 7.50867 39.59 7.386 39.0687 7.386C38.0874 7.386 36.8607 7.44733 35.3887 7.57L34.6527 7.616L34.5607 5.845C36.232 5.44633 37.7654 5.247 39.1607 5.247C40.5714 5.247 41.5834 5.55367 42.1967 6.167C42.8254 6.765 43.1397 7.72333 43.1397 9.042ZM37.9877 11.894C36.9297 11.986 36.4007 12.561 36.4007 13.619C36.4007 14.677 36.8684 15.206 37.8037 15.206C38.5704 15.206 39.383 15.0833 40.2417 14.838L40.6557 14.7V11.641L37.9877 11.894ZM52.4739 7.639H49.2999V12.699C49.2999 13.6343 49.3689 14.2553 49.5069 14.562C49.6449 14.8687 49.9976 15.022 50.5649 15.022L52.4509 14.953L52.5659 16.954C51.5386 17.1533 50.7566 17.253 50.2199 17.253C48.9166 17.253 48.0196 16.954 47.5289 16.356C47.0536 15.758 46.8159 14.631 46.8159 12.975V7.639H45.3439V5.5H46.8159V2.165H49.2999V5.5H52.4739V7.639ZM62.5111 7.869C60.7018 7.62367 59.3908 7.501 58.5781 7.501C57.7654 7.501 57.1981 7.60067 56.8761 7.8C56.5694 7.984 56.4161 8.283 56.4161 8.697C56.4161 9.111 56.5848 9.40233 56.9221 9.571C57.2748 9.73967 58.0874 9.939 59.3601 10.169C60.6481 10.3837 61.5604 10.7287 62.0971 11.204C62.6338 11.6793 62.9021 12.5227 62.9021 13.734C62.9021 14.9453 62.5111 15.8347 61.7291 16.402C60.9624 16.9693 59.8354 17.253 58.3481 17.253C57.4128 17.253 56.2321 17.1227 54.8061 16.862L54.0931 16.747L54.1851 14.654C56.0251 14.8993 57.3514 15.022 58.1641 15.022C58.9768 15.022 59.5518 14.9223 59.8891 14.723C60.2418 14.5237 60.4181 14.194 60.4181 13.734C60.4181 13.274 60.2494 12.9597 59.9121 12.791C59.5901 12.607 58.8004 12.4153 57.5431 12.216C56.3011 12.0013 55.3888 11.6717 54.8061 11.227C54.2234 10.7823 53.9321 9.96967 53.9321 8.789C53.9321 7.60833 54.3308 6.72667 55.1281 6.144C55.9408 5.56133 56.9758 5.27 58.2331 5.27C59.2144 5.27 60.4181 5.39267 61.8441 5.638L62.5571 5.776L62.5111 7.869ZM64.2533 17L68.1403 1.245H73.2233L77.1333 17H74.5573L73.7063 13.619H67.6573L66.8063 17H64.2533ZM70.1183 3.384L68.1633 11.365H73.2003L71.2683 3.384H70.1183ZM79.0799 21.945V5.5H81.5639V6.213C82.6219 5.569 83.6109 5.247 84.5309 5.247C86.0489 5.247 87.1606 5.71467 87.8659 6.65C88.5712 7.57 88.9239 9.12633 88.9239 11.319C88.9239 13.4963 88.5176 15.0297 87.7049 15.919C86.9076 16.8083 85.5966 17.253 83.7719 17.253C83.1432 17.253 82.4149 17.184 81.5869 17.046V21.945H79.0799ZM84.0939 7.478C83.3732 7.478 82.6526 7.639 81.9319 7.961L81.5869 8.122V14.907C82.2002 15.0297 82.8749 15.091 83.6109 15.091C84.6536 15.091 85.3742 14.792 85.7729 14.194C86.1716 13.596 86.3709 12.5763 86.3709 11.135C86.3709 8.697 85.6119 7.478 84.0939 7.478ZM91.4334 21.945V5.5H93.9174V6.213C94.9754 5.569 95.9644 5.247 96.8844 5.247C98.4024 5.247 99.5141 5.71467 100.219 6.65C100.925 7.57 101.277 9.12633 101.277 11.319C101.277 13.4963 100.871 15.0297 100.058 15.919C99.2611 16.8083 97.9501 17.253 96.1254 17.253C95.4967 17.253 94.7684 17.184 93.9404 17.046V21.945H91.4334ZM96.4474 7.478C95.7267 7.478 95.0061 7.639 94.2854 7.961L93.9404 8.122V14.907C94.5537 15.0297 95.2284 15.091 95.9644 15.091C97.0071 15.091 97.7277 14.792 98.1264 14.194C98.5251 13.596 98.7244 12.5763 98.7244 11.135C98.7244 8.697 97.9654 7.478 96.4474 7.478Z" fill="#B1B3BD"/>
</svg>
